#!OML:ASF E:\acrobat2\Project_11_07_03\Capture day 1\Session 1\Acrobat.ASF
:FULLY-SPECIFIED
:DEGREES
556
root 12.683 20.5709 9.72574 3.74826 1.38548 2.22365
lowerback -7.9009 0.0621446 0.199658
upperback 0.825022 0.14213 -1.48737
thorax 5.29929 0.098523 -1.64293
lowerneck 1.28179 -8.05406 -6.11148
upperneck 6.80391 -11.1787 7.01442
head 2.81471 -5.57726 3.08419
rclavicle 3.00041e-015 -1.41137e-014
rhumerus -39.4379 -12.9581 -76.4576
rradius 24.6306
rwrist -6.676
rhand -7.03445 -36.1095
rfingers 7.12502
rthumb 18.8377 -65.2173
lclavicle 3.00041e-015 -1.41137e-014
lhumerus -29.1821 -4.27679 81.8415
lradius 26.4371
lwrist 7.13983
lhand -3.42426 -14.3322
lfingers 7.12502
lthumb 22.3067 14.4002
rfemur -8.97194 13.6505 15.8298
rtibia 25.8723
rfoot -39.7372 -16.8426
rtoes 10.8151
lfemur -18.0883 -2.00394 -15.3641
ltibia 37.0039
lfoot -31.6684 -17.3091
ltoes -1.89944
557
root 12.683 20.5709 9.72574 3.74826 1.38548 2.22365
lowerback -7.9009 0.0621446 0.199658
upperback 0.825022 0.14213 -1.48737
thorax 5.29929 0.098523 -1.64293
lowerneck 1.28179 -8.05406 -6.11148
upperneck 6.80391 -11.1787 7.01442
head 2.81471 -5.57726 3.08419
rclavicle 3.00041e-015 -1.41137e-014
rhumerus -39.4379 -12.9581 -76.4576
rradius 24.6306
rwrist -6.676
rhand -7.03445 -36.1095
rfingers 7.12502
rthumb 18.8377 -65.2173
lclavicle 3.00041e-015 -1.41137e-014
lhumerus -29.1821 -4.27679 81.8415
lradius 26.4371
lwrist 7.13983
lhand -3.42426 -14.3322
lfingers 7.12502
lthumb 22.3067 14.4002
rfemur -8.97194 13.6505 15.8298
rtibia 25.8723
rfoot -39.7372 -16.8426
rtoes 10.8151
lfemur -18.0883 -2.00394 -15.3641
ltibia 37.0039
lfoot -31.6684 -17.3091
ltoes -1.89944
558
root 12.683 20.5709 9.72574 3.74826 1.38548 2.22365
lowerback -7.9009 0.0621446 0.199658
upperback 0.825022 0.14213 -1.48737
thorax 5.29929 0.098523 -1.64293
lowerneck 1.28179 -8.05406 -6.11148
upperneck 6.80391 -11.1787 7.01442
head 2.81471 -5.57726 3.08419
rclavicle 3.00041e-015 -1.41137e-014
rhumerus -39.4379 -12.9581 -76.4576
rradius 24.6306
rwrist -6.676
rhand -7.03445 -36.1095
rfingers 7.12502
rthumb 18.8377 -65.2173
lclavicle 3.00041e-015 -1.41137e-014
lhumerus -29.1821 -4.27679 81.8415
lradius 26.4371
lwrist 7.13983
lhand -3.42426 -14.3322
lfingers 7.12502
lthumb 22.3067 14.4002
rfemur -8.97194 13.6505 15.8298
rtibia 25.8723
rfoot -39.7372 -16.8426
rtoes 10.8151
lfemur -18.0883 -2.00394 -15.3641
ltibia 37.0039
lfoot -31.6684 -17.3091
ltoes -1.89944
559
root 12.683 20.5709 9.72574 3.74826 1.38548 2.22365
lowerback -7.9009 0.0621446 0.199658
upperback 0.825022 0.14213 -1.48737
thorax 5.29929 0.098523 -1.64293
lowerneck 1.28179 -8.05406 -6.11148
upperneck 6.80391 -11.1787 7.01442
head 2.81471 -5.57726 3.08419
rclavicle 3.00041e-015 -1.41137e-014
rhumerus -39.4379 -12.9581 -76.4576
rradius 24.6306
rwrist -6.676
rhand -7.03445 -36.1095
rfingers 7.12502
rthumb 18.8377 -65.2173
lclavicle 3.00041e-015 -1.41137e-014
lhumerus -29.1821 -4.27679 81.8415
lradius 26.4371
lwrist 7.13983
lhand -3.42426 -14.3322
lfingers 7.12502
lthumb 22.3067 14.4002
rfemur -8.97194 13.6505 15.8298
rtibia 25.8723
rfoot -39.7372 -16.8426
rtoes 10.8151
lfemur -18.0883 -2.00394 -15.3641
ltibia 37.0039
lfoot -31.6684 -17.3091
ltoes -1.89944
560
root 12.683 20.5709 9.72574 3.74826 1.38548 2.22365
lowerback -7.9009 0.0621446 0.199658
upperback 0.825022 0.14213 -1.48737
thorax 5.29929 0.098523 -1.64293
lowerneck 1.28179 -8.05406 -6.11148
upperneck 6.80391 -11.1787 7.01442
head 2.81471 -5.57726 3.08419
rclavicle 3.00041e-015 -1.41137e-014
rhumerus -39.4379 -12.9581 -76.4576
rradius 24.6306
rwrist -6.676
rhand -7.03445 -36.1095
rfingers 7.12502
rthumb 18.8377 -65.2173
lclavicle 3.00041e-015 -1.41137e-014
lhumerus -29.1821 -4.27679 81.8415
lradius 26.4371
lwrist 7.13983
lhand -3.42426 -14.3322
lfingers 7.12502
lthumb 22.3067 14.4002
rfemur -8.97194 13.6505 15.8298
rtibia 25.8723
rfoot -39.7372 -16.8426
rtoes 10.8151
lfemur -18.0883 -2.00394 -15.3641
ltibia 37.0039
lfoot -31.6684 -17.3091
ltoes -1.89944
561
root 12.683 20.5709 9.72574 3.74826 1.38548 2.22365
lowerback -7.9009 0.0621446 0.199658
upperback 0.825022 0.14213 -1.48737
thorax 5.29929 0.098523 -1.64293
lowerneck 1.28179 -8.05406 -6.11148
upperneck 6.80391 -11.1787 7.01442
head 2.81471 -5.57726 3.08419
rclavicle 3.00041e-015 -1.41137e-014
rhumerus -39.4379 -12.9581 -76.4576
rradius 24.6306
rwrist -6.676
rhand -7.03445 -36.1095
rfingers 7.12502
rthumb 18.8377 -65.2173
lclavicle 3.00041e-015 -1.41137e-014
lhumerus -29.1821 -4.27679 81.8415
lradius 26.4371
lwrist 7.13983
lhand -3.42426 -14.3322
lfingers 7.12502
lthumb 22.3067 14.4002
rfemur -8.97194 13.6505 15.8298
rtibia 25.8723
rfoot -39.7372 -16.8426
rtoes 10.8151
lfemur -18.0883 -2.00394 -15.3641
ltibia 37.0039
lfoot -31.6684 -17.3091
ltoes -1.89944
562
root 12.6816 20.564 9.73404 3.56381 1.47374 2.65934
lowerback -7.65282 0.0426124 -0.366567
upperback 0.749443 0.178554 -1.72238
thorax 5.08015 0.102816 -1.56313
lowerneck 1.09554 -8.09499 -5.60226
upperneck 7.06705 -11.2103 6.53824
head 2.86719 -5.58441 2.81915
rclavicle 1.92511e-014 7.7526e-015
rhumerus -39.6305 -12.7106 -76.8011
rradius 24.757
rwrist -5.25717
rhand -6.77675 -36.2301
rfingers 7.12502
rthumb 19.0855 -65.3137
lclavicle 1.92511e-014 7.7526e-015
lhumerus -29.0969 -4.14556 81.634
lradius 26.3184
lwrist 6.73264
lhand -3.43251 -15.0868
lfingers 7.12502
lthumb 22.2988 13.6466
rfemur -8.80963 14.0991 15.4647
rtibia 26.1427
rfoot -40.2036 -16.8952
rtoes 11.5312
lfemur -17.7347 -2.14557 -15.8417
ltibia 36.7765
lfoot -31.6151 -17.2993
ltoes -1.40278
563
root 12.6884 20.5595 9.74934 3.48104 1.59168 2.82731
lowerback -7.56609 -0.00507324 -0.616
upperback 0.644721 0.138986 -1.80595
thorax 4.92045 0.0770584 -1.5134
lowerneck 1.03738 -8.01801 -5.45251
upperneck 7.22398 -11.0992 6.32793
head 2.89662 -5.52783 2.72192
rclavicle -8.59122e-015 8.15017e-015
rhumerus -39.8926 -12.5107 -76.9449
rradius 25.0062
rwrist -3.5758
rhand -6.46623 -36.3932
rfingers 7.12502
rthumb 19.3841 -65.4471
lclavicle -8.59122e-015 8.15017e-015
lhumerus -29.1566 -4.45114 81.6892
lradius 26.3748
lwrist 7.17102
lhand -3.75288 -15.3461
lfingers 7.12502
lthumb 21.9913 13.4237
rfemur -8.62061 13.9385 15.2885
rtibia 26.1345
rfoot -40.28 -16.7457
rtoes 11.7494
lfemur -17.5735 -2.26065 -16.072
ltibia 36.74
lfoot -31.6289 -17.067
ltoes -1.91556
564
root 12.691 20.5566 9.76663 3.45639 1.71941 2.60071
lowerback -7.73707 -0.0236931 -0.498194
upperback 0.66735 0.102927 -1.73444
thorax 5.03992 0.0616766 -1.51045
lowerneck 0.904121 -7.96059 -5.5717
upperneck 7.23044 -11.0204 6.38726
head 2.93075 -5.48804 2.76053
rclavicle 8.04146e-015 -2.42517e-014
rhumerus -40.0135 -12.6182 -76.9921
rradius 25.1831
rwrist -1.44201
rhand -6.11437 -36.5854
rfingers 7.12502
rthumb 19.7224 -65.6049
lclavicle 8.04146e-015 -2.42517e-014
lhumerus -29.0267 -4.56118 81.8115
lradius 26.4923
lwrist 7.33293
lhand -4.10434 -15.5492
lfingers 7.12502
lthumb 21.6538 13.2599
rfemur -8.49205 14.0507 15.5802
rtibia 26.1445
rfoot -40.5674 -16.8431
rtoes 11.8858
lfemur -17.4845 -2.4878 -15.8417
ltibia 36.7065
lfoot -31.3856 -17.1349
ltoes -0.199185
